<svg xmlns="http://www.w3.org/2000/svg" viewBox="0 0 512 512">
  <defs>
    <linearGradient id="bg" x1="58" y1="45" x2="454" y2="466" gradientUnits="userSpaceOnUse">
      <stop stop-color="#22c55e"/>
      <stop offset="1" stop-color="#0284c7"/>
    </linearGradient>
    <linearGradient id="leaf" x1="176" y1="354" x2="386" y2="139" gradientUnits="userSpaceOnUse">
      <stop stop-color="#dcfce7"/>
      <stop offset="1" stop-color="#ffffff"/>
    </linearGradient>
  </defs>
  <rect x="16" y="16" width="480" height="480" rx="136" fill="url(#bg)"/>
  <circle cx="248" cy="256" r="168" fill="none" stroke="#fff" stroke-opacity=".34" stroke-width="12"/>
  <path d="M80 248h336M248 88c-56 55-80 109-80 168s24 113 80 168M248 88c56 55 80 109 80 168 0 16-2 31-6 46" fill="none" stroke="#fff" stroke-opacity=".28" stroke-width="11" stroke-linecap="round"/>
  <path d="M144 184c62-45 150-59 240-50-6 92-47 168-120 205-39 20-82 23-127 12-3-70 0-122 7-167Z" fill="url(#leaf)"/>
  <path d="M124 396c58-75 126-139 216-204" fill="none" stroke="#15803d" stroke-width="21" stroke-linecap="round"/>
  <path d="m192 312 10-66M242 273l64-3M287 238l7-48" fill="none" stroke="#16a34a" stroke-width="11" stroke-linecap="round"/>
  <circle cx="404" cy="100" r="32" fill="#fef08a"/>
</svg>
